<?xml version="1.0" encoding="utf-8"?>
<!-- Generator: Adobe Illustrator 15.0.0, SVG Export Plug-In  -->
<!DOCTYPE svg PUBLIC "-//W3C//DTD SVG 1.1//EN" "http://www.w3.org/Graphics/SVG/1.1/DTD/svg11.dtd" [
	<!ENTITY ns_flows "http://ns.adobe.com/Flows/1.0/">
]>
<svg version="1.1"
	 xmlns="http://www.w3.org/2000/svg" xmlns:xlink="http://www.w3.org/1999/xlink" xmlns:a="http://ns.adobe.com/AdobeSVGViewerExtensions/3.0/"
	 x="0px" y="0px" width="103px" height="83px" viewBox="-1.149 -0.187 103 83"
	 overflow="visible" enable-background="new -1.149 -0.187 103 83" xml:space="preserve">
<defs>
</defs>
<path fill="#EE3768" d="M0,0v18.122c0,0,51.876,19.899,59.343,23.098C51.876,44.064,0,63.959,0,63.959v18.124l80.658-32.688V32.693
	L0,0L0,0z"/>
<path fill="#FFFFFF" d="M3.25,43.741v-2.918H0.699v2.918H0v-6.172h0.699v2.674H3.25v-2.674h0.699v6.172H3.25z"/>
<path fill="#FFFFFF" d="M5.378,38.372v-0.804h0.803v0.804H5.378z M5.475,43.741v-4.259h0.606v4.259H5.475z"/>
<path fill="#FFFFFF" d="M10.016,45.128c-0.296,0.316-0.75,0.474-1.361,0.474c-0.21,0-0.405-0.013-0.586-0.042
	c-0.181-0.027-0.372-0.062-0.572-0.104v-0.615c0.172,0.082,0.345,0.143,0.521,0.187c0.173,0.044,0.357,0.062,0.546,0.062
	c0.244,0,0.45-0.03,0.616-0.091c0.166-0.062,0.298-0.152,0.397-0.271c0.099-0.12,0.17-0.268,0.212-0.442
	c0.042-0.178,0.063-0.378,0.063-0.605v-0.753H9.834c-0.082,0.255-0.224,0.452-0.426,0.596s-0.436,0.217-0.701,0.217
	c-0.195,0-0.367-0.031-0.514-0.09c-0.147-0.06-0.273-0.14-0.38-0.242c-0.106-0.104-0.195-0.223-0.267-0.361
	c-0.071-0.138-0.127-0.283-0.167-0.438c-0.041-0.155-0.07-0.314-0.088-0.481c-0.017-0.167-0.026-0.33-0.026-0.488
	c0-0.154,0.01-0.318,0.028-0.487c0.02-0.17,0.05-0.34,0.092-0.507c0.042-0.167,0.1-0.327,0.173-0.479
	c0.073-0.152,0.164-0.285,0.271-0.402c0.108-0.117,0.235-0.209,0.382-0.277c0.147-0.068,0.318-0.103,0.514-0.103
	c0.125,0,0.248,0.018,0.367,0.054c0.119,0.037,0.227,0.088,0.324,0.155c0.099,0.066,0.185,0.15,0.256,0.25
	c0.074,0.099,0.127,0.211,0.163,0.336h0.018v-0.699h0.607v4.268C10.459,44.355,10.311,44.815,10.016,45.128z M9.852,41.533
	c0-0.148-0.017-0.316-0.051-0.503c-0.033-0.188-0.088-0.366-0.165-0.535c-0.078-0.169-0.181-0.311-0.309-0.426
	c-0.128-0.114-0.287-0.172-0.476-0.172c-0.131,0-0.244,0.03-0.339,0.091c-0.094,0.062-0.174,0.141-0.24,0.24
	c-0.065,0.099-0.118,0.211-0.159,0.338s-0.072,0.254-0.094,0.384c-0.022,0.13-0.036,0.255-0.043,0.377
	c-0.008,0.123-0.012,0.231-0.012,0.324s0.004,0.197,0.012,0.31c0.008,0.117,0.021,0.231,0.043,0.349s0.053,0.228,0.094,0.341
	c0.041,0.108,0.093,0.207,0.157,0.294c0.064,0.086,0.142,0.156,0.234,0.207c0.092,0.053,0.202,0.08,0.329,0.08
	c0.128,0,0.244-0.029,0.346-0.084c0.102-0.054,0.19-0.129,0.265-0.224c0.074-0.092,0.137-0.199,0.19-0.315
	c0.052-0.119,0.094-0.24,0.126-0.366c0.032-0.127,0.055-0.251,0.07-0.374C9.844,41.746,9.852,41.634,9.852,41.533z"/>
<path fill="#FFFFFF" d="M14.325,43.741v-2.363c0-0.078,0.001-0.168,0.002-0.269c0.001-0.1-0.001-0.201-0.008-0.303
	c-0.008-0.102-0.022-0.202-0.045-0.298c-0.021-0.098-0.055-0.185-0.102-0.261c-0.047-0.075-0.108-0.138-0.185-0.184
	c-0.074-0.046-0.17-0.069-0.288-0.069c-0.143,0-0.271,0.034-0.386,0.1c-0.115,0.067-0.218,0.155-0.306,0.267
	c-0.089,0.11-0.167,0.236-0.232,0.378c-0.065,0.141-0.119,0.287-0.161,0.434c-0.043,0.149-0.075,0.294-0.094,0.437
	c-0.021,0.143-0.031,0.271-0.031,0.38v1.752h-0.607v-6.172h0.607v2.896h0.017c0.053-0.163,0.116-0.311,0.192-0.443
	c0.076-0.133,0.168-0.247,0.276-0.341c0.107-0.094,0.232-0.167,0.373-0.218c0.142-0.052,0.306-0.076,0.493-0.076
	c0.185,0,0.348,0.038,0.486,0.111c0.138,0.075,0.252,0.172,0.34,0.295c0.089,0.123,0.155,0.262,0.199,0.42
	c0.043,0.156,0.065,0.32,0.065,0.488v3.041H14.325z"/>
<path fill="#FFFFFF" d="M21.864,41.574c0,0.154-0.008,0.318-0.025,0.489c-0.017,0.172-0.048,0.342-0.092,0.51
	c-0.043,0.167-0.102,0.326-0.173,0.48c-0.071,0.151-0.161,0.287-0.268,0.404c-0.109,0.116-0.236,0.208-0.383,0.279
	c-0.146,0.07-0.316,0.104-0.509,0.104c-0.274,0-0.508-0.067-0.703-0.205c-0.195-0.134-0.333-0.333-0.416-0.596h-0.017v2.613h-0.607
	v-6.172h0.607v0.725h0.017c0.036-0.123,0.09-0.234,0.163-0.336c0.073-0.101,0.158-0.188,0.255-0.26
	c0.098-0.071,0.206-0.126,0.324-0.166c0.118-0.04,0.241-0.059,0.369-0.059c0.203,0,0.381,0.031,0.532,0.093
	c0.152,0.064,0.283,0.148,0.392,0.254c0.11,0.106,0.198,0.231,0.267,0.375c0.068,0.144,0.123,0.297,0.164,0.459
	c0.04,0.162,0.068,0.328,0.083,0.5C21.858,41.239,21.864,41.408,21.864,41.574z M21.166,41.463c0-0.148-0.01-0.312-0.029-0.493
	c-0.018-0.181-0.059-0.351-0.122-0.511c-0.062-0.161-0.152-0.293-0.269-0.401c-0.116-0.108-0.272-0.161-0.467-0.161
	c-0.128,0-0.242,0.028-0.341,0.084c-0.099,0.057-0.185,0.131-0.26,0.225c-0.074,0.093-0.136,0.199-0.187,0.318
	c-0.051,0.12-0.093,0.243-0.125,0.367c-0.032,0.125-0.055,0.249-0.068,0.371c-0.013,0.123-0.02,0.233-0.02,0.332
	c0,0.103,0.006,0.215,0.017,0.338c0.013,0.125,0.032,0.252,0.06,0.38c0.028,0.13,0.066,0.256,0.114,0.377
	c0.048,0.123,0.108,0.229,0.181,0.326c0.074,0.095,0.16,0.171,0.26,0.229c0.101,0.057,0.217,0.086,0.352,0.086
	c0.14,0,0.259-0.033,0.358-0.097c0.1-0.066,0.182-0.151,0.249-0.256c0.068-0.105,0.12-0.224,0.16-0.357
	c0.04-0.135,0.069-0.271,0.09-0.411c0.02-0.139,0.034-0.274,0.039-0.403C21.163,41.676,21.166,41.562,21.166,41.463z"/>
<path fill="#FFFFFF" d="M23.385,41.208v0.253c0,0.232,0.03,0.461,0.09,0.686c0.06,0.225,0.151,0.424,0.275,0.597
	c0.125,0.174,0.28,0.316,0.47,0.425c0.189,0.107,0.415,0.161,0.677,0.161c0.149,0,0.29-0.009,0.424-0.03
	c0.134-0.02,0.273-0.05,0.419-0.087v0.503c-0.157,0.051-0.318,0.083-0.483,0.1c-0.164,0.019-0.33,0.026-0.495,0.026
	c-0.366,0-0.682-0.06-0.943-0.177c-0.263-0.119-0.477-0.284-0.645-0.494s-0.291-0.46-0.37-0.751
	c-0.078-0.289-0.117-0.605-0.117-0.95c0-0.276,0.027-0.541,0.084-0.793c0.057-0.251,0.15-0.473,0.28-0.665
	c0.13-0.19,0.301-0.343,0.514-0.457s0.475-0.169,0.786-0.169c0.248,0,0.465,0.04,0.651,0.12c0.187,0.081,0.341,0.192,0.466,0.337
	c0.123,0.143,0.216,0.313,0.277,0.511c0.062,0.196,0.092,0.413,0.092,0.648v0.206H23.385z M25.076,40.377
	c-0.04-0.099-0.097-0.183-0.17-0.253c-0.072-0.071-0.159-0.127-0.257-0.167c-0.099-0.04-0.207-0.06-0.324-0.06
	c-0.125,0-0.239,0.02-0.339,0.06c-0.1,0.04-0.188,0.096-0.262,0.167c-0.075,0.07-0.136,0.155-0.186,0.253
	c-0.05,0.097-0.085,0.204-0.109,0.319h1.708C25.137,40.581,25.116,40.474,25.076,40.377z"/>
<path fill="#FFFFFF" d="M28.304,40.209c-0.182,0.115-0.331,0.264-0.443,0.449c-0.111,0.185-0.191,0.394-0.237,0.625
	c-0.047,0.231-0.07,0.464-0.07,0.697v1.76h-0.607v-4.259h0.607v0.826h0.017c0.268-0.615,0.743-0.922,1.424-0.922v0.651
	C28.717,40.037,28.488,40.094,28.304,40.209z"/>
<path fill="#FFFFFF" d="M31.826,38.085c-0.098-0.021-0.203-0.033-0.312-0.033c-0.239,0-0.424,0.041-0.548,0.12
	c-0.122,0.08-0.211,0.187-0.262,0.32c-0.05,0.133-0.079,0.286-0.081,0.457c-0.002,0.171-0.004,0.348-0.004,0.532h1.228v0.512H30.62
	v3.748h-0.606v-3.748h-0.718v-0.512h0.718v-0.59c0-0.445,0.12-0.781,0.365-1.01c0.241-0.227,0.586-0.34,1.032-0.34
	c0.239,0,0.479,0.027,0.726,0.081v0.549C32.029,38.136,31.927,38.108,31.826,38.085z"/>
<path fill="#FFFFFF" d="M35.765,41.623c0,0.288-0.028,0.566-0.086,0.833c-0.06,0.269-0.155,0.507-0.293,0.711
	c-0.138,0.203-0.318,0.37-0.54,0.49c-0.224,0.123-0.499,0.185-0.833,0.185c-0.329,0-0.604-0.062-0.826-0.187
	c-0.225-0.124-0.402-0.288-0.538-0.494c-0.134-0.203-0.233-0.439-0.289-0.707c-0.058-0.27-0.084-0.546-0.084-0.831
	c0-0.289,0.026-0.567,0.084-0.835c0.056-0.268,0.155-0.505,0.289-0.714c0.136-0.209,0.313-0.375,0.538-0.5
	c0.222-0.125,0.497-0.188,0.826-0.188c0.334,0,0.609,0.062,0.833,0.186c0.222,0.123,0.402,0.288,0.54,0.498
	c0.138,0.208,0.233,0.446,0.293,0.716C35.737,41.055,35.765,41.334,35.765,41.623z M35.067,41.616c0-0.114-0.008-0.235-0.018-0.366
	s-0.03-0.26-0.062-0.386c-0.028-0.127-0.068-0.248-0.118-0.365c-0.048-0.116-0.113-0.219-0.191-0.31
	c-0.079-0.09-0.171-0.161-0.283-0.213c-0.109-0.053-0.236-0.079-0.382-0.079c-0.148,0-0.277,0.026-0.384,0.081
	c-0.107,0.053-0.199,0.125-0.276,0.213c-0.076,0.089-0.144,0.192-0.191,0.31c-0.05,0.118-0.088,0.24-0.116,0.366
	c-0.027,0.126-0.046,0.255-0.058,0.384c-0.008,0.13-0.014,0.25-0.014,0.365c0,0.113,0.006,0.234,0.014,0.362
	c0.012,0.127,0.03,0.255,0.058,0.38c0.028,0.128,0.066,0.25,0.116,0.366c0.048,0.121,0.115,0.224,0.191,0.312
	c0.077,0.088,0.169,0.16,0.276,0.212c0.106,0.055,0.235,0.082,0.384,0.082c0.149,0,0.278-0.026,0.387-0.078
	c0.109-0.052,0.203-0.125,0.284-0.215c0.076-0.089,0.142-0.191,0.191-0.311c0.046-0.114,0.088-0.237,0.114-0.362
	c0.032-0.127,0.052-0.255,0.062-0.384C35.061,41.85,35.067,41.729,35.067,41.616z"/>
<path fill="#FFFFFF" d="M38.242,40.209c-0.182,0.115-0.329,0.264-0.441,0.449c-0.113,0.185-0.191,0.394-0.24,0.625
	c-0.046,0.231-0.07,0.464-0.07,0.697v1.76h-0.604v-4.259h0.604v0.826h0.02c0.268-0.615,0.742-0.922,1.424-0.922v0.651
	C38.656,40.037,38.427,40.094,38.242,40.209z"/>
<path fill="#FFFFFF" d="M44.289,43.741v-2.363c0-0.078,0-0.168,0.002-0.269c0.002-0.1-0.002-0.201-0.008-0.303
	c-0.008-0.102-0.021-0.202-0.044-0.298c-0.021-0.098-0.058-0.185-0.104-0.261c-0.046-0.075-0.106-0.138-0.184-0.184
	c-0.074-0.046-0.17-0.069-0.289-0.069c-0.13,0-0.247,0.035-0.35,0.107c-0.102,0.071-0.195,0.164-0.274,0.279
	c-0.08,0.115-0.147,0.245-0.203,0.389c-0.055,0.144-0.103,0.29-0.138,0.439c-0.034,0.148-0.061,0.292-0.076,0.428
	c-0.016,0.138-0.023,0.255-0.023,0.354v1.752H41.99v-2.363c0-0.078,0.002-0.168,0.004-0.269c0.002-0.1-0.002-0.201-0.008-0.303
	c-0.008-0.102-0.022-0.202-0.046-0.298c-0.021-0.098-0.056-0.185-0.102-0.261c-0.048-0.075-0.107-0.138-0.184-0.184
	s-0.172-0.069-0.289-0.069c-0.128,0-0.245,0.035-0.347,0.107c-0.104,0.071-0.195,0.164-0.273,0.279
	c-0.08,0.115-0.147,0.245-0.203,0.389c-0.058,0.144-0.104,0.29-0.14,0.439c-0.036,0.148-0.062,0.292-0.078,0.428
	c-0.016,0.138-0.025,0.255-0.025,0.354v1.752h-0.606v-4.259h0.606v0.983h0.018c0.044-0.151,0.098-0.292,0.161-0.423
	c0.064-0.131,0.146-0.246,0.237-0.343c0.096-0.098,0.208-0.174,0.337-0.229c0.13-0.056,0.283-0.083,0.457-0.083
	c0.319,0,0.568,0.082,0.756,0.246c0.186,0.165,0.293,0.408,0.314,0.728h0.019c0.044-0.137,0.102-0.264,0.179-0.382
	c0.074-0.118,0.166-0.22,0.27-0.309c0.102-0.086,0.217-0.156,0.347-0.207c0.128-0.052,0.264-0.076,0.413-0.076
	c0.186,0,0.349,0.038,0.486,0.111c0.136,0.075,0.251,0.172,0.339,0.295c0.09,0.123,0.157,0.262,0.199,0.42
	c0.044,0.156,0.066,0.32,0.066,0.488v3.041H44.289z"/>
<path fill="#FFFFFF" d="M48.461,43.741v-0.563h-0.019c-0.058,0.112-0.137,0.207-0.236,0.29c-0.1,0.084-0.208,0.156-0.323,0.21
	c-0.118,0.054-0.243,0.096-0.371,0.121c-0.13,0.029-0.255,0.043-0.375,0.043c-0.184,0-0.347-0.028-0.49-0.085
	c-0.142-0.059-0.263-0.135-0.358-0.241c-0.096-0.104-0.17-0.228-0.22-0.376c-0.052-0.147-0.078-0.31-0.078-0.491
	c0-0.163,0.034-0.309,0.098-0.437c0.062-0.128,0.149-0.241,0.256-0.338c0.105-0.097,0.229-0.182,0.368-0.251
	c0.142-0.07,0.287-0.127,0.436-0.17c0.149-0.044,0.303-0.076,0.45-0.096c0.153-0.021,0.297-0.031,0.425-0.031
	c0.073,0,0.144,0,0.209-0.002c0.068,0,0.138-0.009,0.211-0.023v-0.092c0-0.157-0.002-0.313-0.006-0.47
	c-0.004-0.157-0.029-0.298-0.079-0.422c-0.048-0.125-0.126-0.226-0.237-0.303c-0.107-0.077-0.27-0.115-0.48-0.115
	c-0.124,0-0.239,0.012-0.339,0.035c-0.102,0.023-0.188,0.061-0.262,0.113c-0.071,0.052-0.131,0.122-0.177,0.207
	c-0.046,0.088-0.076,0.195-0.092,0.323h-0.678c0.002-0.216,0.049-0.398,0.139-0.548c0.088-0.149,0.202-0.272,0.346-0.367
	c0.142-0.095,0.305-0.165,0.488-0.207c0.182-0.045,0.368-0.066,0.556-0.066c0.484,0,0.844,0.108,1.075,0.328
	c0.235,0.218,0.354,0.564,0.354,1.039v2.988H48.461z M48.086,41.81c-0.138,0-0.287,0.015-0.448,0.046
	c-0.162,0.03-0.313,0.081-0.453,0.15c-0.14,0.071-0.257,0.163-0.351,0.279c-0.096,0.114-0.144,0.255-0.144,0.425
	c0,0.18,0.056,0.328,0.165,0.445c0.106,0.116,0.254,0.174,0.437,0.174c0.104,0,0.21-0.017,0.306-0.05
	c0.1-0.034,0.193-0.08,0.279-0.139c0.086-0.058,0.163-0.127,0.233-0.209c0.071-0.08,0.127-0.17,0.171-0.267
	c0.034-0.078,0.063-0.149,0.084-0.216c0.023-0.065,0.04-0.131,0.052-0.197c0.01-0.065,0.018-0.133,0.021-0.2
	c0.004-0.071,0.004-0.151,0.004-0.242H48.086z"/>
<path fill="#FFFFFF" d="M52.917,43.741v-2.363c0-0.078,0-0.168,0.002-0.269c0.002-0.1-0.002-0.201-0.01-0.303
	s-0.021-0.202-0.044-0.298c-0.021-0.098-0.056-0.185-0.104-0.261c-0.046-0.075-0.104-0.138-0.182-0.184
	c-0.076-0.046-0.172-0.069-0.289-0.069c-0.142,0-0.27,0.034-0.387,0.1c-0.116,0.067-0.216,0.155-0.306,0.267
	c-0.088,0.11-0.165,0.236-0.23,0.378c-0.066,0.141-0.118,0.287-0.162,0.434c-0.044,0.149-0.075,0.294-0.092,0.437
	c-0.023,0.143-0.033,0.271-0.033,0.38v1.752h-0.604v-4.259h0.604v0.983h0.018c0.052-0.163,0.115-0.311,0.191-0.443
	c0.076-0.133,0.169-0.247,0.275-0.341c0.107-0.094,0.232-0.167,0.376-0.218c0.142-0.052,0.304-0.076,0.489-0.076
	s0.349,0.038,0.488,0.111c0.14,0.075,0.251,0.172,0.341,0.295c0.088,0.123,0.155,0.262,0.199,0.42
	c0.042,0.156,0.064,0.32,0.064,0.488v3.041H52.917z"/>
<path fill="#FFFFFF" d="M57.112,40.778c0-0.121-0.016-0.235-0.042-0.342c-0.027-0.107-0.073-0.201-0.135-0.28
	c-0.059-0.08-0.142-0.144-0.237-0.19s-0.21-0.069-0.348-0.069c-0.195,0-0.356,0.046-0.486,0.142
	c-0.129,0.095-0.233,0.214-0.311,0.361c-0.076,0.149-0.132,0.309-0.166,0.483c-0.031,0.174-0.046,0.341-0.046,0.498
	c0,0.275,0.032,0.532,0.096,0.77c0.061,0.238,0.162,0.442,0.298,0.618c0.137,0.174,0.312,0.312,0.524,0.413
	c0.211,0.099,0.47,0.148,0.773,0.148c0.115,0,0.233-0.005,0.349-0.017c0.117-0.013,0.231-0.037,0.341-0.072v0.482
	c-0.149,0.044-0.293,0.075-0.437,0.092c-0.144,0.019-0.293,0.026-0.452,0.026c-0.365,0-0.685-0.056-0.961-0.162
	c-0.271-0.111-0.499-0.268-0.685-0.471c-0.184-0.201-0.32-0.446-0.41-0.733c-0.092-0.286-0.136-0.607-0.136-0.962
	c0-0.292,0.029-0.566,0.088-0.823c0.058-0.258,0.153-0.484,0.289-0.678c0.136-0.193,0.316-0.347,0.538-0.458
	c0.222-0.112,0.498-0.167,0.825-0.167c0.222,0,0.425,0.029,0.604,0.087c0.182,0.058,0.335,0.146,0.462,0.262
	c0.122,0.116,0.22,0.261,0.287,0.437c0.066,0.175,0.102,0.377,0.102,0.606H57.112z"/>
<path fill="#FFFFFF" d="M59.169,41.208v0.253c0,0.232,0.028,0.461,0.09,0.686c0.058,0.225,0.149,0.424,0.273,0.597
	c0.125,0.174,0.281,0.316,0.471,0.425c0.188,0.107,0.414,0.161,0.676,0.161c0.149,0,0.289-0.009,0.423-0.03
	c0.137-0.02,0.276-0.05,0.422-0.087v0.503c-0.159,0.051-0.32,0.083-0.484,0.1c-0.165,0.019-0.327,0.026-0.496,0.026
	c-0.365,0-0.682-0.06-0.943-0.177c-0.261-0.119-0.477-0.284-0.644-0.494c-0.168-0.21-0.289-0.46-0.369-0.751
	c-0.078-0.289-0.119-0.605-0.119-0.95c0-0.276,0.031-0.541,0.087-0.793c0.055-0.251,0.148-0.473,0.279-0.665
	c0.128-0.19,0.3-0.343,0.511-0.457c0.215-0.114,0.475-0.169,0.789-0.169c0.248,0,0.463,0.04,0.65,0.12
	c0.186,0.081,0.341,0.192,0.465,0.337c0.125,0.143,0.217,0.313,0.278,0.511c0.061,0.196,0.092,0.413,0.092,0.648v0.206H59.169z
	 M60.858,40.377c-0.041-0.099-0.096-0.183-0.169-0.253c-0.074-0.071-0.161-0.127-0.259-0.167c-0.099-0.04-0.208-0.06-0.323-0.06
	c-0.124,0-0.237,0.02-0.339,0.06c-0.1,0.04-0.188,0.096-0.262,0.167c-0.075,0.07-0.136,0.155-0.186,0.253
	c-0.048,0.097-0.085,0.204-0.109,0.319h1.709C60.92,40.581,60.9,40.474,60.858,40.377z"/>
<path fill="#FFFFFF" d="M62.475,43.741v-0.894h0.896v0.894H62.475z"/>
<path fill="#FFFFFF" d="M70.833,40.635c0,0.196-0.007,0.395-0.022,0.596c-0.016,0.203-0.042,0.401-0.08,0.594
	c-0.041,0.192-0.096,0.38-0.165,0.56c-0.067,0.179-0.155,0.344-0.264,0.497c-0.109,0.15-0.241,0.287-0.395,0.406
	c-0.151,0.118-0.333,0.213-0.542,0.284s-0.421,0.117-0.638,0.138c-0.216,0.021-0.435,0.031-0.652,0.031h-1.162v-6.172h1.39
	c0.494,0,0.905,0.076,1.231,0.229c0.325,0.152,0.583,0.365,0.778,0.638c0.189,0.272,0.325,0.596,0.404,0.97
	C70.793,39.779,70.833,40.189,70.833,40.635z M70.072,40.644c0-0.143-0.004-0.292-0.011-0.45c-0.008-0.157-0.023-0.313-0.048-0.469
	c-0.025-0.156-0.06-0.309-0.105-0.457c-0.048-0.148-0.111-0.286-0.186-0.414c-0.079-0.125-0.175-0.237-0.291-0.335
	c-0.117-0.098-0.257-0.176-0.416-0.234c-0.156-0.058-0.321-0.095-0.495-0.111c-0.171-0.017-0.341-0.025-0.516-0.025h-0.394v5.011
	h0.475c0.174,0,0.352-0.009,0.532-0.031c0.18-0.02,0.352-0.067,0.517-0.14c0.214-0.099,0.385-0.237,0.511-0.416
	c0.125-0.181,0.219-0.379,0.281-0.597c0.062-0.219,0.102-0.444,0.121-0.677C70.062,41.066,70.072,40.847,70.072,40.644z"/>
<path fill="#FFFFFF" d="M72.417,41.208v0.253c0,0.232,0.031,0.461,0.091,0.686c0.061,0.225,0.152,0.424,0.275,0.597
	c0.124,0.174,0.281,0.316,0.471,0.425c0.188,0.107,0.413,0.161,0.676,0.161c0.149,0,0.291-0.009,0.425-0.03
	c0.134-0.02,0.273-0.05,0.419-0.087v0.503c-0.158,0.051-0.317,0.083-0.48,0.1c-0.166,0.019-0.333,0.026-0.499,0.026
	c-0.366,0-0.68-0.06-0.944-0.177c-0.26-0.119-0.475-0.284-0.643-0.494c-0.167-0.21-0.291-0.46-0.369-0.751
	c-0.079-0.289-0.117-0.605-0.117-0.95c0-0.276,0.026-0.541,0.084-0.793c0.058-0.251,0.149-0.473,0.279-0.665
	c0.131-0.19,0.301-0.343,0.516-0.457c0.212-0.114,0.473-0.169,0.786-0.169c0.247,0,0.462,0.04,0.649,0.12
	c0.188,0.081,0.343,0.192,0.465,0.337c0.124,0.143,0.216,0.313,0.277,0.511c0.062,0.196,0.092,0.413,0.092,0.648v0.206H72.417z
	 M74.107,40.377c-0.038-0.099-0.094-0.183-0.168-0.253c-0.073-0.071-0.157-0.127-0.259-0.167c-0.098-0.04-0.207-0.06-0.323-0.06
	c-0.125,0-0.237,0.02-0.339,0.06c-0.1,0.04-0.186,0.096-0.263,0.167c-0.072,0.07-0.136,0.155-0.186,0.253
	c-0.05,0.097-0.086,0.204-0.107,0.319h1.708C74.17,40.581,74.151,40.474,74.107,40.377z"/>
<path fill="#FFFFFF" d="M76.031,43.741v-6.172h0.606v6.172H76.031z"/>
<path fill="#FFFFFF" d="M78.092,38.372v-0.804h0.806v0.804H78.092z M78.19,43.741v-4.259h0.606v4.259H78.19z"/>
<path fill="#FFFFFF" d="M81.876,43.741H81.26l-1.613-4.259h0.656l1.256,3.366h0.015l1.094-3.366h0.65L81.876,43.741z"/>
<path fill="#FFFFFF" d="M84.514,41.208v0.253c0,0.232,0.03,0.461,0.09,0.686s0.151,0.424,0.275,0.597
	c0.123,0.174,0.282,0.316,0.47,0.425c0.189,0.107,0.415,0.161,0.678,0.161c0.146,0,0.29-0.009,0.425-0.03
	c0.132-0.02,0.271-0.05,0.417-0.087v0.503c-0.155,0.051-0.315,0.083-0.48,0.1c-0.167,0.019-0.333,0.026-0.496,0.026
	c-0.369,0-0.681-0.06-0.945-0.177c-0.262-0.119-0.477-0.284-0.644-0.494c-0.166-0.21-0.29-0.46-0.369-0.751
	c-0.078-0.289-0.116-0.605-0.116-0.95c0-0.276,0.026-0.541,0.084-0.793c0.056-0.251,0.151-0.473,0.279-0.665
	c0.13-0.19,0.301-0.343,0.513-0.457c0.213-0.114,0.475-0.169,0.787-0.169c0.247,0,0.465,0.04,0.65,0.12
	c0.188,0.081,0.341,0.192,0.464,0.337c0.126,0.143,0.218,0.313,0.279,0.511c0.062,0.196,0.092,0.413,0.092,0.648v0.206H84.514z
	 M86.205,40.377c-0.038-0.099-0.096-0.183-0.169-0.253c-0.074-0.071-0.156-0.127-0.258-0.167c-0.1-0.04-0.207-0.06-0.324-0.06
	c-0.124,0-0.237,0.02-0.338,0.06c-0.102,0.04-0.188,0.096-0.263,0.167c-0.074,0.07-0.134,0.155-0.186,0.253
	c-0.05,0.097-0.084,0.204-0.109,0.319h1.709C86.267,40.581,86.247,40.474,86.205,40.377z"/>
<path fill="#FFFFFF" d="M89.433,40.209c-0.184,0.115-0.331,0.264-0.443,0.449c-0.111,0.185-0.191,0.394-0.237,0.625
	s-0.069,0.464-0.069,0.697v1.76h-0.608v-4.259h0.608v0.826h0.018c0.266-0.615,0.742-0.922,1.424-0.922v0.651
	C89.849,40.037,89.618,40.094,89.433,40.209z"/>
<path fill="#FFFFFF" d="M91.303,41.208v0.253c0,0.232,0.031,0.461,0.091,0.686c0.059,0.225,0.15,0.424,0.273,0.597
	c0.126,0.174,0.283,0.316,0.471,0.425c0.189,0.107,0.415,0.161,0.678,0.161c0.149,0,0.289-0.009,0.425-0.03
	c0.132-0.02,0.271-0.05,0.417-0.087v0.503c-0.156,0.051-0.315,0.083-0.482,0.1c-0.164,0.019-0.331,0.026-0.493,0.026
	c-0.37,0-0.684-0.06-0.948-0.177c-0.26-0.119-0.475-0.284-0.643-0.494c-0.169-0.21-0.289-0.46-0.369-0.751
	c-0.079-0.289-0.117-0.605-0.117-0.95c0-0.276,0.028-0.541,0.086-0.793c0.056-0.251,0.149-0.473,0.277-0.665
	c0.131-0.19,0.303-0.343,0.514-0.457c0.214-0.114,0.477-0.169,0.786-0.169c0.249,0,0.468,0.04,0.651,0.12
	c0.188,0.081,0.343,0.192,0.467,0.337c0.124,0.143,0.216,0.313,0.275,0.511c0.062,0.196,0.094,0.413,0.094,0.648v0.206H91.303z
	 M92.994,40.377c-0.04-0.099-0.098-0.183-0.168-0.253c-0.073-0.071-0.161-0.127-0.259-0.167c-0.1-0.04-0.205-0.06-0.323-0.06
	c-0.127,0-0.239,0.02-0.339,0.06c-0.102,0.04-0.188,0.096-0.263,0.167c-0.072,0.07-0.136,0.155-0.186,0.253
	c-0.048,0.097-0.086,0.204-0.109,0.319h1.708C93.055,40.581,93.034,40.474,92.994,40.377z"/>
<path fill="#FFFFFF" d="M97.136,43.741v-0.725h-0.02c-0.032,0.121-0.086,0.233-0.159,0.337c-0.074,0.103-0.158,0.188-0.256,0.263
	c-0.1,0.072-0.205,0.127-0.323,0.166c-0.119,0.04-0.241,0.06-0.37,0.06c-0.204,0-0.381-0.032-0.532-0.094
	c-0.15-0.062-0.281-0.147-0.392-0.255c-0.107-0.108-0.197-0.234-0.265-0.377c-0.068-0.143-0.126-0.295-0.166-0.457
	c-0.041-0.164-0.067-0.332-0.083-0.505c-0.013-0.17-0.021-0.34-0.021-0.506c0-0.153,0.008-0.317,0.026-0.488
	c0.018-0.173,0.048-0.342,0.09-0.51c0.044-0.167,0.102-0.327,0.175-0.479c0.07-0.153,0.158-0.288,0.268-0.404
	c0.107-0.117,0.235-0.209,0.381-0.277s0.314-0.103,0.51-0.103c0.281,0,0.513,0.067,0.702,0.201c0.188,0.133,0.327,0.332,0.415,0.593
	h0.02v-2.612h0.608v6.172H97.136z M97.136,41.633c0-0.099-0.006-0.211-0.02-0.336c-0.01-0.125-0.03-0.252-0.058-0.382
	c-0.026-0.13-0.066-0.255-0.112-0.377c-0.05-0.123-0.109-0.23-0.182-0.325c-0.073-0.095-0.161-0.171-0.261-0.229
	c-0.1-0.058-0.217-0.087-0.349-0.087c-0.144,0-0.262,0.032-0.361,0.098c-0.098,0.065-0.18,0.15-0.249,0.255
	c-0.067,0.105-0.121,0.224-0.159,0.358c-0.04,0.134-0.068,0.271-0.09,0.41c-0.022,0.14-0.032,0.274-0.036,0.403
	c-0.008,0.129-0.01,0.244-0.01,0.343c0,0.098,0.004,0.206,0.01,0.32c0.006,0.118,0.021,0.234,0.042,0.35
	c0.023,0.114,0.054,0.227,0.092,0.336s0.094,0.205,0.159,0.287c0.064,0.082,0.146,0.149,0.241,0.199
	c0.098,0.049,0.21,0.073,0.341,0.073c0.126,0,0.239-0.029,0.337-0.085c0.1-0.057,0.186-0.132,0.26-0.225
	c0.075-0.094,0.138-0.199,0.188-0.317c0.052-0.12,0.092-0.243,0.125-0.366c0.03-0.127,0.057-0.252,0.07-0.373
	C97.128,41.843,97.136,41.732,97.136,41.633z"/>
<path fill="#FFFFFF" d="M98.915,43.741v-0.894h0.896v0.894H98.915z"/>
</svg>
